<mxfile host="app.diagrams.net" modified="2023-12-31T20:42:27.140Z" agent="Mozilla/5.0 (Macintosh; Intel Mac OS X 10_15_7) AppleWebKit/537.36 (KHTML, like Gecko) Chrome/120.0.0.0 Safari/537.36" version="22.1.16" etag="ODsuiByQL_nzoslJK9PF" type="github">
  <diagram name="Page-1" id="ACanodfob1H_OxjI7L94">
    <mxGraphModel>
      <root>
        <mxCell id="0" />
        <mxCell id="1" parent="0" />
      </root>
    </mxGraphModel>
  </diagram>
</mxfile>
